<svg width="336" height="325" viewBox="0 0 336 325" fill="none" xmlns="http://www.w3.org/2000/svg">
<g clip-path="url(#clip0_15_325)">
<path d="M32.9989 321.77C33.8989 322.504 34.9323 323.004 35.8489 323.72L-35.5511 395.12C-38.6944 398.156 -42.9045 399.836 -47.2744 399.798C-51.6444 399.76 -55.8246 398.007 -58.9147 394.917C-62.0048 391.827 -63.7577 387.647 -63.7956 383.277C-63.8336 378.907 -62.1537 374.697 -59.1177 371.554L12.2989 300.137C18.3473 308.117 25.2929 315.376 32.9989 321.77ZM102.666 209.77L207.549 104.887C209.086 103.295 210.925 102.025 212.959 101.152C214.992 100.278 217.179 99.8187 219.392 99.7994C221.605 99.7802 223.8 100.202 225.848 101.04C227.896 101.878 229.757 103.115 231.322 104.68C232.887 106.245 234.125 108.106 234.963 110.154C235.801 112.203 236.222 114.397 236.203 116.61C236.184 118.823 235.724 121.01 234.851 123.044C233.977 125.077 232.707 126.916 231.116 128.454L176.232 183.337H295.999C312.204 151.023 324.941 117.084 333.999 82.087C336.661 70.9817 336.42 59.3782 333.299 48.393C330.178 37.4079 324.282 27.4109 316.179 19.3644C308.075 11.3178 298.037 5.49244 287.03 2.44899C276.023 -0.594464 264.418 -0.753578 253.332 1.98696C199.957 16.1671 149.123 38.5926 102.666 68.4536V209.77ZM144.332 216.67C143.916 216.67 143.549 216.454 143.132 216.437L35.8489 323.72C57.7339 340.807 84.7168 350.062 112.482 350.004C130.887 349.933 149.086 346.139 165.986 338.849C182.885 331.56 198.135 320.925 210.816 307.587C236.799 280.054 259.424 249.535 278.216 216.67H144.332ZM69.3323 241.67V91.787C53.2067 103.849 37.9265 117.002 23.5989 131.154C10.9589 143.87 1.10207 159.077 -5.34513 175.807C-11.7923 192.538 -14.689 210.427 -13.8511 228.337C-12.6573 254.336 -3.53157 279.346 12.2989 300.004L69.5656 242.72C69.549 242.454 69.3323 242.087 69.3323 241.67Z" fill="#E8E8E8"/>
</g>
<defs>
<clipPath id="clip0_15_325">
<rect width="400" height="400" fill="white" transform="translate(-64)"/>
</clipPath>
</defs>
</svg>
